<svg width="19" height="13" viewBox="0 0 19 13" fill="none" xmlns="http://www.w3.org/2000/svg">
<path d="M12.5122 6.32754L18.7823 10.1929V2.29895L12.5122 6.32754Z" fill="#FC832C"/>
<path d="M0.18457 2.29895V10.1929L6.45465 6.32754L0.18457 2.29895Z" fill="#FC832C"/>
<path d="M17.6206 0.00012207H1.34678C0.766737 0.00012207 0.30642 0.421798 0.219238 0.964762L9.48371 6.91696L18.7482 0.964762C18.661 0.421798 18.2007 0.00012207 17.6206 0.00012207Z" fill="#FC832C"/>
<path d="M11.4483 7.01224L9.80349 8.0687C9.70585 8.13104 9.59542 8.16165 9.48383 8.16165C9.37224 8.16165 9.26181 8.13104 9.16416 8.0687L7.51934 7.01111L0.22168 11.5124C0.311186 12.0508 0.769179 12.4691 1.3469 12.4691H17.6208C18.1985 12.4691 18.6565 12.0508 18.746 11.5124L11.4483 7.01224Z" fill="#FC832C"/>
</svg>
