<svg width="18" height="17" viewBox="0 0 18 17" fill="none" xmlns="http://www.w3.org/2000/svg">
<path d="M14.2244 0H4.46218C2.41787 0 0.759277 1.61738 0.759277 3.6109V13.1306C0.759277 15.1241 2.41787 16.7415 4.46218 16.7415H14.2244C16.2687 16.7415 17.9273 15.1241 17.9273 13.1306V3.6109C17.9273 1.61738 16.2687 0 14.2244 0ZM14.6487 12.5014C14.3752 12.7852 14.0701 13.0348 13.8141 13.3323C13.4214 13.7495 12.9445 13.8965 12.3835 13.8657C11.598 13.8144 10.8651 13.5511 10.1498 13.216C8.56483 12.4672 7.20079 11.4209 6.06116 10.0907C5.22661 9.10933 4.52881 8.06298 4.06594 6.84909C3.84503 6.26779 3.69074 5.66939 3.74334 5.0539C3.77841 4.67092 3.92919 4.33924 4.22023 4.05543C4.5253 3.75794 4.83388 3.45703 5.13895 3.15954C5.54921 2.77657 6.05766 2.77657 6.45039 3.15954C6.70637 3.39206 6.94481 3.64168 7.20079 3.8913C7.43924 4.12382 7.67768 4.35634 7.93366 4.60595C8.35795 5.0197 8.35795 5.50184 7.93366 5.91901C7.62859 6.2165 7.33754 6.51741 7.01494 6.80122C6.93079 6.88329 6.93079 6.93458 6.96235 7.03374C7.16572 7.51588 7.45677 7.92963 7.77937 8.3297C8.44561 9.12642 9.1925 9.82398 10.0797 10.3745C10.2655 10.4908 10.4899 10.5728 10.6758 10.6891C10.7775 10.7404 10.8476 10.7233 10.9317 10.6378C11.2368 10.3403 11.5454 10.0394 11.8505 9.74192C12.2607 9.34185 12.7692 9.34185 13.1619 9.74192C13.6563 10.2241 14.1508 10.7062 14.6452 11.1883C15.0554 11.585 15.0554 12.0842 14.6487 12.5014Z" fill="#FC832C"/>
</svg>
